HIERARCHY
ROOT hip
{
	OFFSET 0.000000 0.000000 0.000000 
	CHANNELS 6 Xposition Yposition Zposition Xrotation Zrotation Yrotation
	JOINT abdomen
	{
		OFFSET 0.000000 3.402643 0.000000 
		CHANNELS 3 Xrotation Zrotation Yrotation
		JOINT chest
		{
			OFFSET 0.000000 8.438565 -0.680529 
			CHANNELS 3 Xrotation Zrotation Yrotation
			JOINT neck
			{
				OFFSET 0.000000 10.207942 -0.272212 
				CHANNELS 3 Xrotation Zrotation Yrotation
				JOINT head
				{
					OFFSET 0.000000 3.130431 0.000000 
					CHANNELS 3 Xrotation Zrotation Yrotation
					End Site
					{
						OFFSET 0.000000 3.130435 0.000000 
					}
				}
			}
			JOINT lCollar
			{
				OFFSET 3.470700 6.669187 -0.816635 
				CHANNELS 3 Yrotation Zrotation Xrotation
				JOINT lShldr
				{
					OFFSET 3.198488 0.000000 0.000000 
					CHANNELS 3 Zrotation Yrotation Xrotation
					JOINT lForeArm
					{
						OFFSET 10.139888 0.000000 0.000000 
						CHANNELS 3 Yrotation Zrotation Xrotation
						JOINT lHand
						{
							OFFSET 8.370511 0.000000 0.000000 
							CHANNELS 3 Zrotation Yrotation Xrotation
							End Site
							{
								OFFSET 4.083176 0.000000 0.000000 
							}
						}
					}
				}
			}
			JOINT rCollar
			{
				OFFSET -3.470700 6.669187 -0.816635 
				CHANNELS 3 Yrotation Zrotation Xrotation
				JOINT rShldr
				{
					OFFSET -3.198488 0.000000 0.000000 
					CHANNELS 3 Zrotation Yrotation Xrotation
					JOINT rForeArm
					{
						OFFSET -10.139888 0.000000 0.000000 
						CHANNELS 3 Yrotation Zrotation Xrotation
						JOINT rHand
						{
							OFFSET -8.370511 0.000000 0.000000 
							CHANNELS 3 Zrotation Yrotation Xrotation
							End Site
							{
								OFFSET -4.083176 0.000000 0.000000 
							}
						}
					}
				}
			}
		}
	}
	JOINT lThigh
	{
		OFFSET 5.308129 -1.633274 1.361059 
		CHANNELS 3 Xrotation Zrotation Yrotation
		JOINT lShin
		{
			OFFSET -2.041588 -20.007561 0.000000 
			CHANNELS 3 Xrotation Zrotation Yrotation
			JOINT lFoot
			{
				OFFSET 0.000000 -19.190928 -1.224953 
				CHANNELS 3 Xrotation Yrotation Zrotation
				End Site
				{
					OFFSET 0.000000 -2.449906 4.627600 
				}
			}
		}
	}
	JOINT rThigh
	{
		OFFSET -5.308129 -1.633274 1.361059 
		CHANNELS 3 Xrotation Zrotation Yrotation
		JOINT rShin
		{
			OFFSET 2.041588 -20.007561 0.000000 
			CHANNELS 3 Xrotation Zrotation Yrotation
			JOINT rFoot
			{
				OFFSET 0.000000 -19.190928 -1.224953 
				CHANNELS 3 Xrotation Yrotation Zrotation
				End Site
				{
					OFFSET 0.000000 -2.449906 4.627600 
				}
			}
		}
	}
}
MOTION
Frames: 11
Frame Time: 0.016667
0.564647 44.114651 -0.642433 5.803740 -6.033600 10.100100 -21.984501 0.764100 -0.297908 18.465900 1.649290 -0.030879 29.946066 -15.867600 -2.018825 21.497299 0.653693 1.335640 2.000000 -2.000000 0.000000 94.726097 174.535004 2.594410 33.164398 -0.329295 0.074849 -179.921005 -179.901001 4.982610 -2.000000 2.000000 0.000000 -96.610703 -174.399994 1.616570 -31.572599 0.331328 0.071585 -0.056624 0.026622 -146.473007 -14.202641 -0.219006 -6.077231 23.371641 2.616867 1.863971 -14.063836 12.488297 3.255629 -7.440829 7.883691 17.078161 13.950131 -2.244353 -1.311193 -13.076375 -33.243698 -10.127094 
0.629784 44.117222 -0.622161 5.794130 -6.053130 10.060100 -21.965099 0.801662 -0.281173 18.475700 1.678580 -0.012129 30.185877 -15.364266 -2.091079 21.547400 0.858274 1.303270 2.000000 -2.000000 0.000000 94.794403 174.535004 2.369800 33.017899 -0.329485 0.074556 -179.921005 -179.901001 4.982610 -2.000000 2.000000 0.000000 -96.552101 -174.440002 1.343240 -31.982800 0.330812 0.072417 -0.056646 0.026757 -146.520996 -14.168872 -0.208213 -5.885703 23.353518 2.609916 1.882430 -14.029362 12.363479 3.205687 -7.416424 7.822454 16.790352 13.950397 -2.245231 -1.321016 -13.036290 -32.949799 -10.043292 
0.683921 44.117222 -0.607593 5.764990 -6.082590 10.011400 -21.916500 0.838172 -0.295079 18.495100 1.737160 -0.013663 30.549671 -14.634778 -2.307531 21.656900 1.127420 1.195390 2.000000 -2.000000 0.000000 94.862801 174.593994 2.135570 32.871399 -0.329675 0.074262 -179.921005 -179.901001 5.021670 -2.000000 2.000000 0.000000 -96.513100 -174.470001 1.128470 -32.578499 0.330053 0.073619 -0.056842 0.027888 -146.932007 -14.113130 -0.217712 -5.801719 23.392878 2.609186 1.881647 -14.150161 12.263158 3.199532 -7.453892 7.814071 16.492844 14.111458 -2.289595 -1.322855 -12.977245 -32.712257 -9.869968 
0.732932 44.111176 -0.600195 5.765830 -6.160320 9.964520 -21.867701 0.843107 -0.254164 18.553801 1.668900 0.010031 30.743942 -14.202687 -2.516406 21.706499 1.220040 1.089300 2.000000 -2.000000 0.000000 95.097198 174.712006 2.047960 32.715199 -0.329877 0.073949 -179.921005 -179.891006 5.090050 -2.000000 2.000000 0.000000 -96.288399 -174.393005 0.825536 -32.998402 0.329511 0.074461 -0.056715 0.027161 -146.667999 -14.149217 -0.179438 -5.742935 23.441378 2.611161 1.871508 -14.297155 12.199815 3.229886 -7.375748 7.767905 16.271620 13.823170 -2.237101 -1.322608 -12.254204 -32.647133 -9.535059 
0.786187 44.106289 -0.598449 5.855090 -6.237080 9.927630 -21.857800 0.824054 -0.193765 18.612600 1.522560 0.036235 30.917688 -13.608086 -2.704452 21.717800 1.378110 0.993492 2.000000 -2.000000 0.000000 95.399902 174.800003 2.028630 32.568699 -0.330066 0.073655 -179.921997 -179.901993 5.363470 -2.000000 2.000000 0.000000 -95.936798 -174.179001 0.278116 -33.623402 0.328692 0.075707 -0.056628 0.026649 -146.481995 -14.255039 -0.156486 -5.707051 23.442019 2.608848 1.880706 -14.341055 12.150591 3.208025 -7.522359 7.755830 16.055716 13.737318 -2.214791 -1.312096 -11.499599 -32.732887 -9.165782 
0.828672 44.098068 -0.592705 5.825400 -6.217980 9.854660 -21.818600 0.807356 -0.154915 18.632200 1.483540 0.047830 31.088022 -12.973238 -2.826480 21.710300 1.592190 0.934809 2.000000 -2.000000 0.000000 95.556198 174.858994 1.716270 32.344101 -0.330354 0.073203 -179.923004 -179.903000 5.949420 -2.000000 2.000000 0.000000 -95.790298 -174.130005 0.170570 -34.180000 0.327951 0.076810 -0.056711 0.027134 -146.658005 -14.228011 -0.166072 -5.484512 23.481878 2.607038 1.889490 -14.356882 12.002122 3.175089 -7.490255 7.691701 15.934430 13.717375 -2.213364 -1.302572 -11.258198 -32.648098 -9.016602 
0.849958 44.077507 -0.585550 5.677020 -6.122400 9.733660 -21.750099 0.797649 -0.097443 18.622400 1.493290 0.076545 31.247992 -12.227398 -2.936170 21.703400 1.843500 0.868143 2.000000 -2.000000 0.000000 95.741699 174.908997 1.501550 32.207401 -0.330528 0.072927 -179.923004 -179.903000 5.881060 -2.000000 2.000000 0.000000 -95.751198 -174.188004 0.414859 -34.639000 0.327332 0.077713 -0.056880 0.028104 -147.009995 -13.981088 -0.381999 -6.093745 23.491085 2.609151 1.880001 -14.226177 12.861369 3.386874 -7.423192 7.668092 15.973956 14.016487 -2.267504 -1.331965 -11.535736 -32.512932 -9.050801 
0.868986 44.080082 -0.579410 5.617380 -6.054990 9.600090 -21.711000 0.799060 -0.065905 18.622400 1.532330 0.084993 31.366192 -11.593293 -3.038187 21.676701 2.039280 0.802431 2.000000 -2.000000 0.000000 95.907700 174.938004 1.237950 32.080399 -0.330689 0.072670 -179.923004 -179.903000 5.890830 -2.000000 2.000000 0.000000 -95.722000 -174.266006 0.668964 -35.078499 0.326733 0.078574 -0.057001 0.028777 -147.253998 -13.858577 -0.385909 -5.771853 23.481960 2.602483 1.878831 -14.390869 12.511000 3.319606 -7.394069 7.654435 16.056261 14.180262 -2.292111 -1.321842 -11.863330 -32.412811 -9.157462 
0.889063 44.086891 -0.575620 5.616870 -6.006390 9.458360 -21.701300 0.804753 -0.078537 18.641899 1.571390 0.084211 31.460735 -10.865713 -3.089496 21.641100 2.291100 0.764008 2.000000 -2.000000 0.000000 96.024902 174.910004 1.003500 32.041401 -0.330738 0.072591 -179.923004 -179.903000 5.988480 -2.000000 2.000000 0.000000 -95.702499 -174.363007 0.815696 -35.469101 0.326194 0.079335 -0.057071 0.029153 -147.389999 -13.851677 -0.377301 -5.412457 23.469587 2.619367 1.862879 -14.432702 12.173464 3.241884 -7.367085 7.603505 16.158508 14.219598 -2.293417 -1.321227 -12.233171 -32.233765 -9.336297 
0.898079 44.084969 -0.570093 5.587210 -5.987250 9.277780 -21.691500 0.815089 -0.050981 18.641899 1.571390 0.103742 31.640711 -10.163328 -3.187755 21.635099 2.533240 0.713459 2.000000 -2.000000 0.000000 96.141998 174.880997 0.671402 31.933901 -0.330874 0.072374 -179.923004 -179.904007 6.193560 -2.000000 2.000000 0.000000 -95.663399 -174.363007 1.040300 -35.801201 0.325733 0.079979 -0.057181 0.029745 -147.604996 -13.734240 -0.334141 -5.258679 23.419689 2.626947 1.865153 -14.420638 12.165275 3.258391 -7.383649 7.657360 16.398104 14.353035 -2.324905 -1.321906 -12.435346 -32.231972 -9.414931 
0.893971 44.078926 -0.561294 5.528200 -5.978130 9.079750 -21.662399 0.850534 -0.012099 18.661400 1.600690 0.122841 31.778460 -9.522938 -3.268143 21.638700 2.747300 0.654427 2.000000 -2.000000 0.000000 96.190903 174.940994 0.095371 31.738600 -0.331120 0.071978 -179.923996 -179.904999 6.730670 -2.000000 2.000000 0.000000 -95.624397 -174.341995 1.333220 -36.064800 0.325364 0.080488 -0.057252 0.030121 -147.742004 -13.635490 -0.338747 -5.382973 23.431242 2.617944 1.882711 -14.332783 12.499948 3.317024 -7.301662 7.660672 16.653837 14.286557 -2.305067 -1.311174 -12.288176 -32.381447 -9.350093 
